<?xml version="1.0" encoding="UTF-8"?>
<svg xmlns="http://www.w3.org/2000/svg" xmlns:xlink="http://www.w3.org/1999/xlink"
     width="1000" height="1000" viewBox="0 0 1000 1000">
<defs>
</defs>
<g transform="translate(0,1000) scale(0.01,-0.01)">
<rect x="0" y="0" width="100000" height="100000" fill="none" stroke="black" stroke-width="100" />
<path d="M97739,50344 L97739,51571" stroke="blue" stroke-width="100" />
<path d="M97739,51571 L98274,51571" stroke="blue" stroke-width="100" />
<path d="M98274,51571 L98274,52752" stroke="blue" stroke-width="100" />
<path d="M98274,52752 L97501,52752" stroke="blue" stroke-width="100" />
<path d="M97501,52752 L97501,53963" stroke="blue" stroke-width="100" />
<path d="M97501,53963 L97513,53963" stroke="blue" stroke-width="100" />
<path d="M97513,53963 L97513,55170" stroke="blue" stroke-width="100" />
<path d="M97513,55170 L97443,55170" stroke="blue" stroke-width="100" />
<path d="M97443,55170 L97443,56360" stroke="blue" stroke-width="100" />
<path d="M97443,56360 L97220,56360" stroke="blue" stroke-width="100" />
<path d="M97220,56360 L97220,57634" stroke="blue" stroke-width="100" />
<path d="M97220,57634 L97539,57634" stroke="blue" stroke-width="100" />
<path d="M97539,57634 L97539,58834" stroke="blue" stroke-width="100" />
<path d="M97539,58834 L97323,58834" stroke="blue" stroke-width="100" />
<path d="M97323,58834 L97323,59898" stroke="blue" stroke-width="100" />
<path d="M97323,59898 L96465,59898" stroke="blue" stroke-width="100" />
<path d="M96465,59898 L96465,61263" stroke="blue" stroke-width="100" />
<path d="M96465,61263 L96996,61263" stroke="blue" stroke-width="100" />
<path d="M96996,61263 L96996,62339" stroke="blue" stroke-width="100" />
<path d="M96996,62339 L96281,62339" stroke="blue" stroke-width="100" />
<path d="M96281,62339 L96281,63628" stroke="blue" stroke-width="100" />
<path d="M96281,63628 L96363,63628" stroke="blue" stroke-width="100" />
<path d="M96363,63628 L96363,64617" stroke="blue" stroke-width="100" />
<path d="M96363,64617 L95438,64617" stroke="blue" stroke-width="100" />
<path d="M95438,64617 L95438,65842" stroke="blue" stroke-width="100" />
<path d="M95438,65842 L95279,65842" stroke="blue" stroke-width="100" />
<path d="M95279,65842 L95279,66911" stroke="blue" stroke-width="100" />
<path d="M95279,66911 L94671,66911" stroke="blue" stroke-width="100" />
<path d="M94671,66911 L94671,68092" stroke="blue" stroke-width="100" />
<path d="M94671,68092 L94363,68092" stroke="blue" stroke-width="100" />
<path d="M94363,68092 L94363,69401" stroke="blue" stroke-width="100" />
<path d="M94363,69401 L94326,69401" stroke="blue" stroke-width="100" />
<path d="M94326,69401 L94326,70239" stroke="blue" stroke-width="100" />
<path d="M94326,70239 L93226,70239" stroke="blue" stroke-width="100" />
<path d="M93226,70239 L93226,71263" stroke="blue" stroke-width="100" />
<path d="M93226,71263 L92569,71263" stroke="blue" stroke-width="100" />
<path d="M92569,71263 L92569,72679" stroke="blue" stroke-width="100" />
<path d="M92569,72679 L92664,72679" stroke="blue" stroke-width="100" />
<path d="M92664,72679 L92664,73377" stroke="blue" stroke-width="100" />
<path d="M92664,73377 L91411,73377" stroke="blue" stroke-width="100" />
<path d="M91411,73377 L91411,74680" stroke="blue" stroke-width="100" />
<path d="M91411,74680 L91242,74680" stroke="blue" stroke-width="100" />
<path d="M91242,74680 L91242,75835" stroke="blue" stroke-width="100" />
<path d="M91242,75835 L90790,75835" stroke="blue" stroke-width="100" />
<path d="M90790,75835 L90790,76580" stroke="blue" stroke-width="100" />
<path d="M90790,76580 L89705,76580" stroke="blue" stroke-width="100" />
<path d="M89705,76580 L89705,77988" stroke="blue" stroke-width="100" />
<path d="M89705,77988 L89600,77988" stroke="blue" stroke-width="100" />
<path d="M89600,77988 L89600,78962" stroke="blue" stroke-width="100" />
<path d="M89600,78962 L88850,78962" stroke="blue" stroke-width="100" />
<path d="M88850,78962 L88850,79537" stroke="blue" stroke-width="100" />
<path d="M88850,79537 L87596,79537" stroke="blue" stroke-width="100" />
<path d="M87596,79537 L87596,80848" stroke="blue" stroke-width="100" />
<path d="M87596,80848 L87280,80848" stroke="blue" stroke-width="100" />
<path d="M87280,80848 L87280,81800" stroke="blue" stroke-width="100" />
<path d="M87280,81800 L86507,81800" stroke="blue" stroke-width="100" />
<path d="M86507,81800 L86507,82573" stroke="blue" stroke-width="100" />
<path d="M86507,82573 L85535,82573" stroke="blue" stroke-width="100" />
<path d="M85535,82573 L85535,83185" stroke="blue" stroke-width="100" />
<path d="M85535,83185 L84410,83185" stroke="blue" stroke-width="100" />
<path d="M84410,83185 L84410,84055" stroke="blue" stroke-width="100" />
<path d="M84410,84055 L83567,84055" stroke="blue" stroke-width="100" />
<path d="M83567,84055 L83567,85119" stroke="blue" stroke-width="100" />
<path d="M83567,85119 L82904,85119" stroke="blue" stroke-width="100" />
<path d="M82904,85119 L82904,85753" stroke="blue" stroke-width="100" />
<path d="M82904,85753 L81836,85753" stroke="blue" stroke-width="100" />
<path d="M81836,85753 L81836,86856" stroke="blue" stroke-width="100" />
<path d="M81836,86856 L81181,86856" stroke="blue" stroke-width="100" />
<path d="M81181,86856 L81181,87287" stroke="blue" stroke-width="100" />
<path d="M81181,87287 L79958,87287" stroke="blue" stroke-width="100" />
<path d="M79958,87287 L79958,88114" stroke="blue" stroke-width="100" />
<path d="M79958,88114 L79065,88114" stroke="blue" stroke-width="100" />
<path d="M79065,88114 L79065,89189" stroke="blue" stroke-width="100" />
<path d="M79065,89189 L78344,89189" stroke="blue" stroke-width="100" />
<path d="M78344,89189 L78344,89828" stroke="blue" stroke-width="100" />
<path d="M78344,89828 L77297,89828" stroke="blue" stroke-width="100" />
<path d="M77297,89828 L77297,89851" stroke="blue" stroke-width="100" />
<path d="M77297,89851 L75854,89851" stroke="blue" stroke-width="100" />
<path d="M75854,89851 L75854,90641" stroke="blue" stroke-width="100" />
<path d="M75854,90641 L74927,90641" stroke="blue" stroke-width="100" />
<path d="M74927,90641 L74927,91493" stroke="blue" stroke-width="100" />
<path d="M74927,91493 L74024,91493" stroke="blue" stroke-width="100" />
<path d="M74024,91493 L74024,91708" stroke="blue" stroke-width="100" />
<path d="M74024,91708 L72758,91708" stroke="blue" stroke-width="100" />
<path d="M72758,91708 L72758,92639" stroke="blue" stroke-width="100" />
<path d="M72758,92639 L71883,92639" stroke="blue" stroke-width="100" />
<path d="M71883,92639 L71883,93141" stroke="blue" stroke-width="100" />
<path d="M71883,93141 L70777,93141" stroke="blue" stroke-width="100" />
<path d="M70777,93141 L70777,94086" stroke="blue" stroke-width="100" />
<path d="M70777,94086 L69872,94086" stroke="blue" stroke-width="100" />
<path d="M69872,94086 L69872,94642" stroke="blue" stroke-width="100" />
<path d="M69872,94642 L68777,94642" stroke="blue" stroke-width="100" />
<path d="M68777,94642 L68777,94418" stroke="blue" stroke-width="100" />
<path d="M68777,94418 L67372,94418" stroke="blue" stroke-width="100" />
<path d="M67372,94418 L67372,95046" stroke="blue" stroke-width="100" />
<path d="M67372,95046 L66314,95046" stroke="blue" stroke-width="100" />
<path d="M66314,95046 L66314,95926" stroke="blue" stroke-width="100" />
<path d="M66314,95926 L65329,95926" stroke="blue" stroke-width="100" />
<path d="M65329,95926 L65329,95544" stroke="blue" stroke-width="100" />
<path d="M65329,95544 L63929,95544" stroke="blue" stroke-width="100" />
<path d="M63929,95544 L63929,96034" stroke="blue" stroke-width="100" />
<path d="M63929,96034 L62813,96034" stroke="blue" stroke-width="100" />
<path d="M62813,96034 L62813,96559" stroke="blue" stroke-width="100" />
<path d="M62813,96559 L61697,96559" stroke="blue" stroke-width="100" />
<path d="M61697,96559 L61697,97195" stroke="blue" stroke-width="100" />
<path d="M61697,97195 L60593,97195" stroke="blue" stroke-width="100" />
<path d="M60593,97195 L60593,96671" stroke="blue" stroke-width="100" />
<path d="M60593,96671 L59241,96671" stroke="blue" stroke-width="100" />
<path d="M59241,96671 L59241,97319" stroke="blue" stroke-width="100" />
<path d="M59241,97319 L58129,97319" stroke="blue" stroke-width="100" />
<path d="M58129,97319 L58129,97045" stroke="blue" stroke-width="100" />
<path d="M58129,97045 L56860,97045" stroke="blue" stroke-width="100" />
<path d="M56860,97045 L56860,97350" stroke="blue" stroke-width="100" />
<path d="M56860,97350 L55683,97350" stroke="blue" stroke-width="100" />
<path d="M55683,97350 L55683,98172" stroke="blue" stroke-width="100" />
<path d="M55683,98172 L54547,98172" stroke="blue" stroke-width="100" />
<path d="M54547,98172 L54547,97713" stroke="blue" stroke-width="100" />
<path d="M54547,97713 L53287,97713" stroke="blue" stroke-width="100" />
<path d="M53287,97713 L53287,97525" stroke="blue" stroke-width="100" />
<path d="M53287,97525 L52066,97525" stroke="blue" stroke-width="100" />
<path d="M52066,97525 L52066,98306" stroke="blue" stroke-width="100" />
<path d="M52066,98306 L50875,98306" stroke="blue" stroke-width="100" />
<path d="M50875,98306 L50875,97591" stroke="blue" stroke-width="100" />
<path d="M50875,97591 L49656,97591" stroke="blue" stroke-width="100" />
<path d="M49656,97591 L49656,97755" stroke="blue" stroke-width="100" />
<path d="M49656,97755 L48445,97755" stroke="blue" stroke-width="100" />
<path d="M48445,97755 L48445,97799" stroke="blue" stroke-width="100" />
<path d="M48445,97799 L47230,97799" stroke="blue" stroke-width="100" />
<path d="M47230,97799 L47230,97741" stroke="blue" stroke-width="100" />
<path d="M47230,97741 L46017,97741" stroke="blue" stroke-width="100" />
<path d="M46017,97741 L46017,98053" stroke="blue" stroke-width="100" />
<path d="M46017,98053 L44763,98053" stroke="blue" stroke-width="100" />
<path d="M44763,98053 L44763,97805" stroke="blue" stroke-width="100" />
<path d="M44763,97805 L43560,97805" stroke="blue" stroke-width="100" />
<path d="M43560,97805 L43560,97114" stroke="blue" stroke-width="100" />
<path d="M43560,97114 L42434,97114" stroke="blue" stroke-width="100" />
<path d="M42434,97114 L42434,97505" stroke="blue" stroke-width="100" />
<path d="M42434,97505 L41131,97505" stroke="blue" stroke-width="100" />
<path d="M41131,97505 L41131,96661" stroke="blue" stroke-width="100" />
<path d="M41131,96661 L40059,96661" stroke="blue" stroke-width="100" />
<path d="M40059,96661 L40059,96718" stroke="blue" stroke-width="100" />
<path d="M40059,96718 L38803,96718" stroke="blue" stroke-width="100" />
<path d="M38803,96718 L38803,96537" stroke="blue" stroke-width="100" />
<path d="M38803,96537 L37591,96537" stroke="blue" stroke-width="100" />
<path d="M37591,96537 L37591,95988" stroke="blue" stroke-width="100" />
<path d="M37591,95988 L36481,95988" stroke="blue" stroke-width="100" />
<path d="M36481,95988 L36481,95537" stroke="blue" stroke-width="100" />
<path d="M36481,95537 L35351,95537" stroke="blue" stroke-width="100" />
<path d="M35351,95537 L35351,95062" stroke="blue" stroke-width="100" />
<path d="M35351,95062 L34233,95062" stroke="blue" stroke-width="100" />
<path d="M34233,95062 L34233,94502" stroke="blue" stroke-width="100" />
<path d="M34233,94502 L33152,94502" stroke="blue" stroke-width="100" />
<path d="M33152,94502 L33152,94197" stroke="blue" stroke-width="100" />
<path d="M33152,94197 L31974,94197" stroke="blue" stroke-width="100" />
<path d="M31974,94197 L31974,94035" stroke="blue" stroke-width="100" />
<path d="M31974,94035 L30725,94035" stroke="blue" stroke-width="100" />
<path d="M30725,94035 L30725,93480" stroke="blue" stroke-width="100" />
<path d="M30725,93480 L29640,93480" stroke="blue" stroke-width="100" />
<path d="M29640,93480 L29640,92675" stroke="blue" stroke-width="100" />
<path d="M29640,92675 L28683,92675" stroke="blue" stroke-width="100" />
<path d="M28683,92675 L28683,92350" stroke="blue" stroke-width="100" />
<path d="M28683,92350 L27487,92350" stroke="blue" stroke-width="100" />
<path d="M27487,92350 L27487,91503" stroke="blue" stroke-width="100" />
<path d="M27487,91503 L26570,91503" stroke="blue" stroke-width="100" />
<path d="M26570,91503 L26570,91119" stroke="blue" stroke-width="100" />
<path d="M26570,91119 L25393,91119" stroke="blue" stroke-width="100" />
<path d="M25393,91119 L25393,90582" stroke="blue" stroke-width="100" />
<path d="M25393,90582 L24296,90582" stroke="blue" stroke-width="100" />
<path d="M24296,90582 L24296,89877" stroke="blue" stroke-width="100" />
<path d="M24296,89877 L23304,89877" stroke="blue" stroke-width="100" />
<path d="M23304,89877 L23304,88930" stroke="blue" stroke-width="100" />
<path d="M23304,88930 L22484,88930" stroke="blue" stroke-width="100" />
<path d="M22484,88930 L22484,88155" stroke="blue" stroke-width="100" />
<path d="M22484,88155 L21556,88155" stroke="blue" stroke-width="100" />
<path d="M21556,88155 L21556,88024" stroke="blue" stroke-width="100" />
<path d="M21556,88024 L20126,88024" stroke="blue" stroke-width="100" />
<path d="M20126,88024 L20126,87039" stroke="blue" stroke-width="100" />
<path d="M20126,87039 L19351,87039" stroke="blue" stroke-width="100" />
<path d="M19351,87039 L19351,86353" stroke="blue" stroke-width="100" />
<path d="M19351,86353 L18333,86353" stroke="blue" stroke-width="100" />
<path d="M18333,86353 L18333,85504" stroke="blue" stroke-width="100" />
<path d="M18333,85504 L17454,85504" stroke="blue" stroke-width="100" />
<path d="M17454,85504 L17454,84880" stroke="blue" stroke-width="100" />
<path d="M17454,84880 L16361,84880" stroke="blue" stroke-width="100" />
<path d="M16361,84880 L16361,83998" stroke="blue" stroke-width="100" />
<path d="M16361,83998 L15508,83998" stroke="blue" stroke-width="100" />
<path d="M15508,83998 L15508,83082" stroke="blue" stroke-width="100" />
<path d="M15508,83082 L14690,83082" stroke="blue" stroke-width="100" />
<path d="M14690,83082 L14690,82035" stroke="blue" stroke-width="100" />
<path d="M14690,82035 L14023,82035" stroke="blue" stroke-width="100" />
<path d="M14023,82035 L14023,80880" stroke="blue" stroke-width="100" />
<path d="M14023,80880 L13499,80880" stroke="blue" stroke-width="100" />
<path d="M13499,80880 L13499,80294" stroke="blue" stroke-width="100" />
<path d="M13499,80294 L12294,80294" stroke="blue" stroke-width="100" />
<path d="M12294,80294 L12294,79160" stroke="blue" stroke-width="100" />
<path d="M12294,79160 L11761,79160" stroke="blue" stroke-width="100" />
<path d="M11761,79160 L11761,78152" stroke="blue" stroke-width="100" />
<path d="M11761,78152 L11076,78152" stroke="blue" stroke-width="100" />
<path d="M11076,78152 L11076,77346" stroke="blue" stroke-width="100" />
<path d="M11076,77346 L10099,77346" stroke="blue" stroke-width="100" />
<path d="M10099,77346 L10099,76187" stroke="blue" stroke-width="100" />
<path d="M10099,76187 L9634,76187" stroke="blue" stroke-width="100" />
<path d="M9634,76187 L9634,74892" stroke="blue" stroke-width="100" />
<path d="M9634,74892 L9415,74892" stroke="blue" stroke-width="100" />
<path d="M9415,74892 L9415,74076" stroke="blue" stroke-width="100" />
<path d="M9415,74076 L8416,74076" stroke="blue" stroke-width="100" />
<path d="M8416,74076 L8416,73130" stroke="blue" stroke-width="100" />
<path d="M8416,73130 L7608,73130" stroke="blue" stroke-width="100" />
<path d="M7608,73130 L7608,71996" stroke="blue" stroke-width="100" />
<path d="M7608,71996 L7139,71996" stroke="blue" stroke-width="100" />
<path d="M7139,71996 L7139,70930" stroke="blue" stroke-width="100" />
<path d="M7139,70930 L6539,70930" stroke="blue" stroke-width="100" />
<path d="M6539,70930 L6539,69915" stroke="blue" stroke-width="100" />
<path d="M6539,69915 L5818,69915" stroke="blue" stroke-width="100" />
<path d="M5818,69915 L5818,68567" stroke="blue" stroke-width="100" />
<path d="M5818,68567 L5858,68567" stroke="blue" stroke-width="100" />
<path d="M5858,68567 L5858,67380" stroke="blue" stroke-width="100" />
<path d="M5858,67380 L5561,67380" stroke="blue" stroke-width="100" />
<path d="M5561,67380 L5561,66437" stroke="blue" stroke-width="100" />
<path d="M5561,66437 L4615,66437" stroke="blue" stroke-width="100" />
<path d="M4615,66437 L4615,65258" stroke="blue" stroke-width="100" />
<path d="M4615,65258 L4284,65258" stroke="blue" stroke-width="100" />
<path d="M4284,65258 L4284,63945" stroke="blue" stroke-width="100" />
<path d="M4284,63945 L4402,63945" stroke="blue" stroke-width="100" />
<path d="M4402,63945 L4402,62746" stroke="blue" stroke-width="100" />
<path d="M4402,62746 L4207,62746" stroke="blue" stroke-width="100" />
<path d="M4207,62746 L4207,61637" stroke="blue" stroke-width="100" />
<path d="M4207,61637 L3678,61637" stroke="blue" stroke-width="100" />
<path d="M3678,61637 L3678,60447" stroke="blue" stroke-width="100" />
<path d="M3678,60447 L3458,60447" stroke="blue" stroke-width="100" />
<path d="M3458,60447 L3458,59293" stroke="blue" stroke-width="100" />
<path d="M3458,59293 L3064,59293" stroke="blue" stroke-width="100" />
<path d="M3064,59293 L3064,58162" stroke="blue" stroke-width="100" />
<path d="M3064,58162 L2488,58162" stroke="blue" stroke-width="100" />
<path d="M2488,58162 L2488,56891" stroke="blue" stroke-width="100" />
<path d="M2488,56891 L2737,56891" stroke="blue" stroke-width="100" />
<path d="M2737,56891 L2737,55722" stroke="blue" stroke-width="100" />
<path d="M2737,55722 L2329,55722" stroke="blue" stroke-width="100" />
<path d="M2329,55722 L2329,54493" stroke="blue" stroke-width="100" />
<path d="M2329,54493 L2400,54493" stroke="blue" stroke-width="100" />
<path d="M2400,54493 L2400,53318" stroke="blue" stroke-width="100" />
<path d="M2400,53318 L1844,53318" stroke="blue" stroke-width="100" />
<path d="M1844,53318 L1844,52080" stroke="blue" stroke-width="100" />
<path d="M1844,52080 L2154,52080" stroke="blue" stroke-width="100" />
<path d="M2154,52080 L2154,50860" stroke="blue" stroke-width="100" />
<path d="M2154,50860 L2506,50860" stroke="blue" stroke-width="100" />
<path d="M2506,50860 L2506,50322" stroke="blue" stroke-width="100" />
<path d="M2506,50322 L94737,50322" stroke="blue" stroke-width="100" />
<path d="M94737,50322 L94737,48449" stroke="blue" stroke-width="100" />
<path d="M94737,48449 L2390,48449" stroke="blue" stroke-width="100" />
<path d="M2390,48449 L2390,47223" stroke="blue" stroke-width="100" />
<path d="M2390,47223 L2086,47223" stroke="blue" stroke-width="100" />
<path d="M2086,47223 L2086,46043" stroke="blue" stroke-width="100" />
<path d="M2086,46043 L2569,46043" stroke="blue" stroke-width="100" />
<path d="M2569,46043 L2569,44800" stroke="blue" stroke-width="100" />
<path d="M2569,44800 L2293,44800" stroke="blue" stroke-width="100" />
<path d="M2293,44800 L2293,43643" stroke="blue" stroke-width="100" />
<path d="M2293,43643 L2809,43643" stroke="blue" stroke-width="100" />
<path d="M2809,43643 L2809,42358" stroke="blue" stroke-width="100" />
<path d="M2809,42358 L2411,42358" stroke="blue" stroke-width="100" />
<path d="M2411,42358 L2411,41109" stroke="blue" stroke-width="100" />
<path d="M2411,41109 L2379,41109" stroke="blue" stroke-width="100" />
<path d="M2379,41109 L2379,39899" stroke="blue" stroke-width="100" />
<path d="M2379,39899 L2588,39899" stroke="blue" stroke-width="100" />
<path d="M2588,39899 L2588,38856" stroke="blue" stroke-width="100" />
<path d="M2588,38856 L3504,38856" stroke="blue" stroke-width="100" />
<path d="M3504,38856 L3504,37681" stroke="blue" stroke-width="100" />
<path d="M3504,37681 L3799,37681" stroke="blue" stroke-width="100" />
<path d="M3799,37681 L3799,36456" stroke="blue" stroke-width="100" />
<path d="M3799,36456 L3926,36456" stroke="blue" stroke-width="100" />
<path d="M3926,36456 L3926,35358" stroke="blue" stroke-width="100" />
<path d="M3926,35358 L4486,35358" stroke="blue" stroke-width="100" />
<path d="M4486,35358 L4486,34172" stroke="blue" stroke-width="100" />
<path d="M4486,34172 L4764,34172" stroke="blue" stroke-width="100" />
<path d="M4764,34172 L4764,33109" stroke="blue" stroke-width="100" />
<path d="M4764,33109 L5384,33109" stroke="blue" stroke-width="100" />
<path d="M5384,33109 L5384,31731" stroke="blue" stroke-width="100" />
<path d="M5384,31731 L5205,31731" stroke="blue" stroke-width="100" />
<path d="M5205,31731 L5205,30944" stroke="blue" stroke-width="100" />
<path d="M5205,30944 L6463,30944" stroke="blue" stroke-width="100" />
<path d="M6463,30944 L6463,29488" stroke="blue" stroke-width="100" />
<path d="M6463,29488 L6194,29488" stroke="blue" stroke-width="100" />
<path d="M6194,29488 L6194,28754" stroke="blue" stroke-width="100" />
<path d="M6194,28754 L7465,28754" stroke="blue" stroke-width="100" />
<path d="M7465,28754 L7465,27704" stroke="blue" stroke-width="100" />
<path d="M7465,27704 L8056,27704" stroke="blue" stroke-width="100" />
<path d="M8056,27704 L8056,26447" stroke="blue" stroke-width="100" />
<path d="M8056,26447 L8278,26447" stroke="blue" stroke-width="100" />
<path d="M8278,26447 L8278,25532" stroke="blue" stroke-width="100" />
<path d="M8278,25532 L9113,25532" stroke="blue" stroke-width="100" />
<path d="M9113,25532 L9113,24513" stroke="blue" stroke-width="100" />
<path d="M9113,24513 L9760,24513" stroke="blue" stroke-width="100" />
<path d="M9760,24513 L9760,23176" stroke="blue" stroke-width="100" />
<path d="M9760,23176 L9932,23176" stroke="blue" stroke-width="100" />
<path d="M9932,23176 L9932,22111" stroke="blue" stroke-width="100" />
<path d="M9932,22111 L10541,22111" stroke="blue" stroke-width="100" />
<path d="M10541,22111 L10541,21320" stroke="blue" stroke-width="100" />
<path d="M10541,21320 L11528,21320" stroke="blue" stroke-width="100" />
<path d="M11528,21320 L11528,20269" stroke="blue" stroke-width="100" />
<path d="M11528,20269 L12157,20269" stroke="blue" stroke-width="100" />
<path d="M12157,20269 L12157,19445" stroke="blue" stroke-width="100" />
<path d="M12157,19445 L13074,19445" stroke="blue" stroke-width="100" />
<path d="M13074,19445 L13074,18598" stroke="blue" stroke-width="100" />
<path d="M13074,18598 L13950,18598" stroke="blue" stroke-width="100" />
<path d="M13950,18598 L13950,17240" stroke="blue" stroke-width="100" />
<path d="M13950,17240 L14261,17240" stroke="blue" stroke-width="100" />
<path d="M14261,17240 L14261,16897" stroke="blue" stroke-width="100" />
<path d="M14261,16897 L15675,16897" stroke="blue" stroke-width="100" />
<path d="M15675,16897 L15675,15943" stroke="blue" stroke-width="100" />
<path d="M15675,15943 L16430,15943" stroke="blue" stroke-width="100" />
<path d="M16430,15943 L16430,15249" stroke="blue" stroke-width="100" />
<path d="M16430,15249 L17440,15249" stroke="blue" stroke-width="100" />
<path d="M17440,15249 L17440,13843" stroke="blue" stroke-width="100" />
<path d="M17440,13843 L17804,13843" stroke="blue" stroke-width="100" />
<path d="M17804,13843 L17804,13266" stroke="blue" stroke-width="100" />
<path d="M17804,13266 L18922,13266" stroke="blue" stroke-width="100" />
<path d="M18922,13266 L18922,12637" stroke="blue" stroke-width="100" />
<path d="M18922,12637 L19980,12637" stroke="blue" stroke-width="100" />
<path d="M19980,12637 L19980,11951" stroke="blue" stroke-width="100" />
<path d="M19980,11951 L20984,11951" stroke="blue" stroke-width="100" />
<path d="M20984,11951 L20984,11277" stroke="blue" stroke-width="100" />
<path d="M20984,11277 L21993,11277" stroke="blue" stroke-width="100" />
<path d="M21993,11277 L21993,10718" stroke="blue" stroke-width="100" />
<path d="M21993,10718 L23077,10718" stroke="blue" stroke-width="100" />
<path d="M23077,10718 L23077,9679" stroke="blue" stroke-width="100" />
<path d="M23077,9679 L23841,9679" stroke="blue" stroke-width="100" />
<path d="M23841,9679 L23841,9217" stroke="blue" stroke-width="100" />
<path d="M23841,9217 L24986,9217" stroke="blue" stroke-width="100" />
<path d="M24986,9217 L24986,8853" stroke="blue" stroke-width="100" />
<path d="M24986,8853 L26176,8853" stroke="blue" stroke-width="100" />
<path d="M26176,8853 L26176,7764" stroke="blue" stroke-width="100" />
<path d="M26176,7764 L26954,7764" stroke="blue" stroke-width="100" />
<path d="M26954,7764 L26954,7166" stroke="blue" stroke-width="100" />
<path d="M26954,7166 L28017,7166" stroke="blue" stroke-width="100" />
<path d="M28017,7166 L28017,7178" stroke="blue" stroke-width="100" />
<path d="M28017,7178 L29376,7178" stroke="blue" stroke-width="100" />
<path d="M29376,7178 L29376,5810" stroke="blue" stroke-width="100" />
<path d="M29376,5810 L30080,5810" stroke="blue" stroke-width="100" />
<path d="M30080,5810 L30080,5959" stroke="blue" stroke-width="100" />
<path d="M30080,5959 L31475,5959" stroke="blue" stroke-width="100" />
<path d="M31475,5959 L31475,5251" stroke="blue" stroke-width="100" />
<path d="M31475,5251 L32498,5251" stroke="blue" stroke-width="100" />
<path d="M32498,5251 L32498,4480" stroke="blue" stroke-width="100" />
<path d="M32498,4480 L33513,4480" stroke="blue" stroke-width="100" />
<path d="M33513,4480 L33513,4576" stroke="blue" stroke-width="100" />
<path d="M33513,4576 L34838,4576" stroke="blue" stroke-width="100" />
<path d="M34838,4576 L34838,4264" stroke="blue" stroke-width="100" />
<path d="M34838,4264 L36011,4264" stroke="blue" stroke-width="100" />
<path d="M36011,4264 L36011,3679" stroke="blue" stroke-width="100" />
<path d="M36011,3679 L37106,3679" stroke="blue" stroke-width="100" />
<path d="M37106,3679 L37106,3299" stroke="blue" stroke-width="100" />
<path d="M37106,3299 L38266,3299" stroke="blue" stroke-width="100" />
<path d="M38266,3299 L38266,2892" stroke="blue" stroke-width="100" />
<path d="M38266,2892 L39425,2892" stroke="blue" stroke-width="100" />
<path d="M39425,2892 L39425,2827" stroke="blue" stroke-width="100" />
<path d="M39425,2827 L40659,2827" stroke="blue" stroke-width="100" />
<path d="M40659,2827 L40659,2940" stroke="blue" stroke-width="100" />
<path d="M40659,2940 L41915,2940" stroke="blue" stroke-width="100" />
<path d="M41915,2940 L41915,2349" stroke="blue" stroke-width="100" />
<path d="M41915,2349 L43051,2349" stroke="blue" stroke-width="100" />
<path d="M43051,2349 L43051,2778" stroke="blue" stroke-width="100" />
<path d="M43051,2778 L44331,2778" stroke="blue" stroke-width="100" />
<path d="M44331,2778 L44331,2194" stroke="blue" stroke-width="100" />
<path d="M44331,2194 L45486,2194" stroke="blue" stroke-width="100" />
<path d="M45486,2194 L45486,2119" stroke="blue" stroke-width="100" />
<path d="M45486,2119 L46700,2119" stroke="blue" stroke-width="100" />
<path d="M46700,2119 L46700,2243" stroke="blue" stroke-width="100" />
<path d="M46700,2243 L47923,2243" stroke="blue" stroke-width="100" />
<path d="M47923,2243 L47923,2326" stroke="blue" stroke-width="100" />
<path d="M47923,2326 L49135,2326" stroke="blue" stroke-width="100" />
<path d="M49135,2326 L49135,1876" stroke="blue" stroke-width="100" />
<path d="M49135,1876 L50346,1876" stroke="blue" stroke-width="100" />
<path d="M50346,1876 L50346,2441" stroke="blue" stroke-width="100" />
<path d="M50346,2441 L51548,2441" stroke="blue" stroke-width="100" />
<path d="M51548,2441 L51548,2483" stroke="blue" stroke-width="100" />
<path d="M51548,2483 L52753,2483" stroke="blue" stroke-width="100" />
<path d="M52753,2483 L52753,1889" stroke="blue" stroke-width="100" />
<path d="M52753,1889 L54012,1889" stroke="blue" stroke-width="100" />
<path d="M54012,1889 L54012,2305" stroke="blue" stroke-width="100" />
<path d="M54012,2305 L55197,2305" stroke="blue" stroke-width="100" />
<path d="M55197,2305 L55197,2876" stroke="blue" stroke-width="100" />
<path d="M55197,2876 L56347,2876" stroke="blue" stroke-width="100" />
<path d="M56347,2876 L56347,2850" stroke="blue" stroke-width="100" />
<path d="M56347,2850 L57571,2850" stroke="blue" stroke-width="100" />
<path d="M57571,2850 L57571,3252" stroke="blue" stroke-width="100" />
<path d="M57571,3252 L58727,3252" stroke="blue" stroke-width="100" />
<path d="M58727,3252 L58727,2720" stroke="blue" stroke-width="100" />
<path d="M58727,2720 L60072,2720" stroke="blue" stroke-width="100" />
<path d="M60072,2720 L60072,3119" stroke="blue" stroke-width="100" />
<path d="M60072,3119 L61235,3119" stroke="blue" stroke-width="100" />
<path d="M61235,3119 L61235,4100" stroke="blue" stroke-width="100" />
<path d="M61235,4100 L62237,4100" stroke="blue" stroke-width="100" />
<path d="M62237,4100 L62237,3882" stroke="blue" stroke-width="100" />
<path d="M62237,3882 L63556,3882" stroke="blue" stroke-width="100" />
<path d="M63556,3882 L63556,4174" stroke="blue" stroke-width="100" />
<path d="M63556,4174 L64741,4174" stroke="blue" stroke-width="100" />
<path d="M64741,4174 L64741,4241" stroke="blue" stroke-width="100" />
<path d="M64741,4241 L66010,4241" stroke="blue" stroke-width="100" />
<path d="M66010,4241 L66010,4837" stroke="blue" stroke-width="100" />
<path d="M66010,4837 L67097,4837" stroke="blue" stroke-width="100" />
<path d="M67097,4837 L67097,5760" stroke="blue" stroke-width="100" />
<path d="M67097,5760 L68042,5760" stroke="blue" stroke-width="100" />
<path d="M68042,5760 L68042,5887" stroke="blue" stroke-width="100" />
<path d="M68042,5887 L69307,5887" stroke="blue" stroke-width="100" />
<path d="M69307,5887 L69307,6281" stroke="blue" stroke-width="100" />
<path d="M69307,6281 L70470,6281" stroke="blue" stroke-width="100" />
<path d="M70470,6281 L70470,6711" stroke="blue" stroke-width="100" />
<path d="M70470,6711 L71622,6711" stroke="blue" stroke-width="100" />
<path d="M71622,6711 L71622,7675" stroke="blue" stroke-width="100" />
<path d="M71622,7675 L72498,7675" stroke="blue" stroke-width="100" />
<path d="M72498,7675 L72498,8378" stroke="blue" stroke-width="100" />
<path d="M72498,8378 L73495,8378" stroke="blue" stroke-width="100" />
<path d="M73495,8378 L73495,8584" stroke="blue" stroke-width="100" />
<path d="M73495,8584 L74783,8584" stroke="blue" stroke-width="100" />
<path d="M74783,8584 L74783,9182" stroke="blue" stroke-width="100" />
<path d="M74783,9182 L75852,9182" stroke="blue" stroke-width="100" />
<path d="M75852,9182 L75852,10124" stroke="blue" stroke-width="100" />
<path d="M75852,10124 L76694,10124" stroke="blue" stroke-width="100" />
<path d="M76694,10124 L76694,10824" stroke="blue" stroke-width="100" />
<path d="M76694,10824 L77688,10824" stroke="blue" stroke-width="100" />
<path d="M77688,10824 L77688,11291" stroke="blue" stroke-width="100" />
<path d="M77688,11291 L78856,11291" stroke="blue" stroke-width="100" />
<path d="M78856,11291 L78856,11876" stroke="blue" stroke-width="100" />
<path d="M78856,11876 L79952,11876" stroke="blue" stroke-width="100" />
<path d="M79952,11876 L79952,13002" stroke="blue" stroke-width="100" />
<path d="M79952,13002 L80614,13002" stroke="blue" stroke-width="100" />
<path d="M80614,13002 L80614,14121" stroke="blue" stroke-width="100" />
<path d="M80614,14121 L81252,14121" stroke="blue" stroke-width="100" />
<path d="M81252,14121 L81252,14643" stroke="blue" stroke-width="100" />
<path d="M81252,14643 L82409,14643" stroke="blue" stroke-width="100" />
<path d="M82409,14643 L82409,15229" stroke="blue" stroke-width="100" />
<path d="M82409,15229 L83532,15229" stroke="blue" stroke-width="100" />
<path d="M83532,15229 L83532,16534" stroke="blue" stroke-width="100" />
<path d="M83532,16534 L83951,16534" stroke="blue" stroke-width="100" />
<path d="M83951,16534 L83951,17485" stroke="blue" stroke-width="100" />
<path d="M83951,17485 L84702,17485" stroke="blue" stroke-width="100" />
<path d="M84702,17485 L84702,18282" stroke="blue" stroke-width="100" />
<path d="M84702,18282 L85619,18282" stroke="blue" stroke-width="100" />
<path d="M85619,18282 L85619,18732" stroke="blue" stroke-width="100" />
<path d="M85619,18732 L86957,18732" stroke="blue" stroke-width="100" />
<path d="M86957,18732 L86957,19710" stroke="blue" stroke-width="100" />
<path d="M86957,19710 L87698,19710" stroke="blue" stroke-width="100" />
<path d="M87698,19710 L87698,21161" stroke="blue" stroke-width="100" />
<path d="M87698,21161 L87817,21161" stroke="blue" stroke-width="100" />
<path d="M87817,21161 L87817,22075" stroke="blue" stroke-width="100" />
<path d="M87817,22075 L88609,22075" stroke="blue" stroke-width="100" />
<path d="M88609,22075 L88609,22913" stroke="blue" stroke-width="100" />
<path d="M88609,22913 L89521,22913" stroke="blue" stroke-width="100" />
<path d="M89521,22913 L89521,23857" stroke="blue" stroke-width="100" />
<path d="M89521,23857 L90295,23857" stroke="blue" stroke-width="100" />
<path d="M90295,23857 L90295,24755" stroke="blue" stroke-width="100" />
<path d="M90295,24755 L91159,24755" stroke="blue" stroke-width="100" />
<path d="M91159,24755 L91159,25741" stroke="blue" stroke-width="100" />
<path d="M91159,25741 L91897,25741" stroke="blue" stroke-width="100" />
<path d="M91897,25741 L91897,27075" stroke="blue" stroke-width="100" />
<path d="M91897,27075 L92013,27075" stroke="blue" stroke-width="100" />
<path d="M92013,27075 L92013,28248" stroke="blue" stroke-width="100" />
<path d="M92013,28248 L92383,28248" stroke="blue" stroke-width="100" />
<path d="M92383,28248 L92383,29045" stroke="blue" stroke-width="100" />
<path d="M92383,29045 L93508,29045" stroke="blue" stroke-width="100" />
<path d="M93508,29045 L93508,30450" stroke="blue" stroke-width="100" />
<path d="M93508,30450 L93370,30450" stroke="blue" stroke-width="100" />
<path d="M93370,30450 L93370,31400" stroke="blue" stroke-width="100" />
<path d="M93370,31400 L94218,31400" stroke="blue" stroke-width="100" />
<path d="M94218,31400 L94218,32543" stroke="blue" stroke-width="100" />
<path d="M94218,32543 L94631,32543" stroke="blue" stroke-width="100" />
<path d="M94631,32543 L94631,33600" stroke="blue" stroke-width="100" />
<path d="M94631,33600 L95279,33600" stroke="blue" stroke-width="100" />
<path d="M95279,33600 L95279,34703" stroke="blue" stroke-width="100" />
<path d="M95279,34703 L95827,34703" stroke="blue" stroke-width="100" />
<path d="M95827,34703 L95827,36066" stroke="blue" stroke-width="100" />
<path d="M95827,36066 L95555,36066" stroke="blue" stroke-width="100" />
<path d="M95555,36066 L95555,37101" stroke="blue" stroke-width="100" />
<path d="M95555,37101 L96338,37101" stroke="blue" stroke-width="100" />
<path d="M96338,37101 L96338,38245" stroke="blue" stroke-width="100" />
<path d="M96338,38245 L96785,38245" stroke="blue" stroke-width="100" />
<path d="M96785,38245 L96785,39467" stroke="blue" stroke-width="100" />
<path d="M96785,39467 L96923,39467" stroke="blue" stroke-width="100" />
<path d="M96923,39467 L96923,40731" stroke="blue" stroke-width="100" />
<path d="M96923,40731 L96811,40731" stroke="blue" stroke-width="100" />
<path d="M96811,40731 L96811,41934" stroke="blue" stroke-width="100" />
<path d="M96811,41934 L96944,41934" stroke="blue" stroke-width="100" />
<path d="M96944,41934 L96944,43040" stroke="blue" stroke-width="100" />
<path d="M96944,43040 L97726,43040" stroke="blue" stroke-width="100" />
<path d="M97726,43040 L97726,44278" stroke="blue" stroke-width="100" />
<path d="M97726,44278 L97667,44278" stroke="blue" stroke-width="100" />
<path d="M97667,44278 L97667,45509" stroke="blue" stroke-width="100" />
<path d="M97667,45509 L97562,45509" stroke="blue" stroke-width="100" />
<path d="M97562,45509 L97562,46697" stroke="blue" stroke-width="100" />
<path d="M97562,46697 L97935,46697" stroke="blue" stroke-width="100" />
<path d="M97935,46697 L97935,47906" stroke="blue" stroke-width="100" />
<path d="M97935,47906 L98133,47906" stroke="blue" stroke-width="100" />
<path d="M98133,47906 L98133,49137" stroke="blue" stroke-width="100" />
<path d="M98133,49137 L97585,49137" stroke="blue" stroke-width="100" />
<path d="M97585,49137 L97585,50344" stroke="blue" stroke-width="100" />
<path d="M97585,50344 L97739,50344" stroke="blue" stroke-width="100" />
<path d="M94737,50322 L4615,50322" stroke="red" stroke-width="100" />
<path d="M4615,50322 L4615,66437" stroke="red" stroke-width="100" />
<path d="M4615,66437 L94737,66437" stroke="red" stroke-width="100" />
<path d="M94737,50322 L94737,66437" stroke="red" stroke-width="100" />
</g>
</svg>